<?xml version="1.0" encoding="UTF-8" standalone="no"?>
<!-- Created with Inkscape (http://www.inkscape.org/) -->

<svg
   width="32"
   height="32"
   viewBox="0 0 8.4666665 8.4666666"
   version="1.1"
   id="svg1"
   inkscape:version="1.4.2 (f4327f4, 2025-05-13)"
   sodipodi:docname="settings_8_teethed.svg"
   xmlns:inkscape="http://www.inkscape.org/namespaces/inkscape"
   xmlns:sodipodi="http://sodipodi.sourceforge.net/DTD/sodipodi-0.dtd"
   xmlns="http://www.w3.org/2000/svg"
   xmlns:svg="http://www.w3.org/2000/svg">
  <sodipodi:namedview
     id="namedview1"
     pagecolor="#ffffff"
     bordercolor="#000000"
     borderopacity="0.25"
     inkscape:showpageshadow="2"
     inkscape:pageopacity="0.0"
     inkscape:pagecheckerboard="0"
     inkscape:deskcolor="#d1d1d1"
     inkscape:document-units="px"
     inkscape:zoom="32"
     inkscape:cx="17.46875"
     inkscape:cy="18.890625"
     inkscape:window-width="2560"
     inkscape:window-height="1566"
     inkscape:window-x="-11"
     inkscape:window-y="-11"
     inkscape:window-maximized="1"
     inkscape:current-layer="layer1"
     showgrid="false" />
  <defs
     id="defs1" />
  <g
     inkscape:label="Layer 1"
     inkscape:groupmode="layer"
     id="layer1">
    <path
       id="path1"
       style="fill:none;stroke:#000000;stroke-width:1.05833;stroke-linecap:round;stroke-linejoin:round"
       d="M 4.2333333 0.52916666 A 3.7041683 3.7041683 0 0 0 4.0555664 0.53330077 L 3.4297648 2.2934 L 1.7425293 1.4913818 A 3.7041683 3.7041683 0 0 0 1.4913818 1.7425293 L 2.2934 3.4297648 L 0.53330077 4.0555664 A 3.7041683 3.7041683 0 0 0 0.52916666 4.2333333 A 3.7041683 3.7041683 0 0 0 0.53330077 4.4111002 L 2.2934 5.0369018 L 1.4913818 6.7241373 A 3.7041683 3.7041683 0 0 0 1.7425293 6.9752847 L 3.4297648 6.1732665 L 4.0555664 7.9333658 A 3.7041683 3.7041683 0 0 0 4.2333333 7.9374999 A 3.7041683 3.7041683 0 0 0 4.4111002 7.9333658 L 5.0369018 6.1732665 L 6.7241373 6.9752847 A 3.7041683 3.7041683 0 0 0 6.9752847 6.7241373 L 6.1732665 5.0369018 L 7.9333658 4.4111002 A 3.7041683 3.7041683 0 0 0 7.9374999 4.2333333 A 3.7041683 3.7041683 0 0 0 7.9333658 4.0555664 L 6.1732665 3.4297648 L 6.9752847 1.7425293 A 3.7041683 3.7041683 0 0 0 6.7241373 1.4913818 L 5.0369018 2.2934 L 4.4111002 0.53330077 A 3.7041683 3.7041683 0 0 0 4.2333333 0.52916666 z M 4.2333333 3.4395833 A 0.79374999 0.79374999 0 0 1 5.0270833 4.2333333 A 0.79374999 0.79374999 0 0 1 4.2333333 5.0270833 A 0.79374999 0.79374999 0 0 1 3.4395833 4.2333333 A 0.79374999 0.79374999 0 0 1 4.2333333 3.4395833 z " />
  </g>
</svg>
